<?xml version="1.0" standalone="no"?>
<svg xmlns:xlink="http://www.w3.org/1999/xlink" id="wave" style="transform:rotate(180deg); transition: 0.3s" viewBox="0 0 1440 490" version="1.1" xmlns="http://www.w3.org/2000/svg"><defs><linearGradient id="sw-gradient-0" x1="0" x2="0" y1="1" y2="0"><stop stop-color="rgba(27, 120, 149, 1)" offset="0%"/><stop stop-color="rgba(27, 120, 149, 1)" offset="100%"/></linearGradient></defs><path style="transform:translate(0, 0px); opacity:1" fill="url(#sw-gradient-0)" d="M0,196L80,171.5C160,147,320,98,480,122.5C640,147,800,245,960,277.7C1120,310,1280,278,1440,236.8C1600,196,1760,147,1920,179.7C2080,212,2240,327,2400,310.3C2560,294,2720,147,2880,138.8C3040,131,3200,261,3360,310.3C3520,359,3680,327,3840,261.3C4000,196,4160,98,4320,73.5C4480,49,4640,98,4800,155.2C4960,212,5120,278,5280,294C5440,310,5600,278,5760,236.8C5920,196,6080,147,6240,130.7C6400,114,6560,131,6720,138.8C6880,147,7040,147,7200,196C7360,245,7520,343,7680,343C7840,343,8000,245,8160,228.7C8320,212,8480,278,8640,302.2C8800,327,8960,310,9120,326.7C9280,343,9440,392,9600,375.7C9760,359,9920,278,10080,204.2C10240,131,10400,65,10560,49C10720,33,10880,65,11040,65.3C11200,65,11360,33,11440,16.3L11520,0L11520,490L11440,490C11360,490,11200,490,11040,490C10880,490,10720,490,10560,490C10400,490,10240,490,10080,490C9920,490,9760,490,9600,490C9440,490,9280,490,9120,490C8960,490,8800,490,8640,490C8480,490,8320,490,8160,490C8000,490,7840,490,7680,490C7520,490,7360,490,7200,490C7040,490,6880,490,6720,490C6560,490,6400,490,6240,490C6080,490,5920,490,5760,490C5600,490,5440,490,5280,490C5120,490,4960,490,4800,490C4640,490,4480,490,4320,490C4160,490,4000,490,3840,490C3680,490,3520,490,3360,490C3200,490,3040,490,2880,490C2720,490,2560,490,2400,490C2240,490,2080,490,1920,490C1760,490,1600,490,1440,490C1280,490,1120,490,960,490C800,490,640,490,480,490C320,490,160,490,80,490L0,490Z"/></svg>